:SAMPLES-PER-SECOND 30
:FULLY-SPECIFIED
:DEGREES
181
root  35.07985994 36.45041158 -14.86302924 12.20611 12.91662979 5.718765736
lowerback  -8.944841385 3.487680197 3.773120642
upperback  -4.386000156 4.002470016 -4.979370117
thorax  1.06438005 1.743450046 -6.934579849
lowerneck  -14.80480003 -6.310919762 -2.343610048
upperneck  12.78639984 -9.512009621 7.527629852
head  6.819869518 -4.178936005 1.79755187
lclavicle  0 -4.497500157e-015 -2.743230041e-014
lhumerus  -43.7098999 29.9435997 65.10099792
lradius  -0.1150207892 -6.507048965e-006 24.7968998
lwrist  4.824992743e-007 -3.790274832e-007 -38.0788002
lhand  -4.445722858e-031 -37.41320038 -10.73250008
lfingers  90 7.125020027 -90
lthumb  95.06946723 -25.54847534 101.6232695
rclavicle  0 -4.497500157e-015 -2.743230041e-014
rhumerus  65.56310272 -11.61600018 -56.06380081
rradius  -5.16745672e-007 2.214343908e-008 38.95920181
rwrist  1.380293725e-006 2.528095422e-007 -155.5399933
rhand  -1.771080799e-031 4.52410984 -7.264560223
rfingers  -90 -7.125020027 -90
rthumb  -84.90647594 -8.771361956 -59.69309881
rfemur  -15.10545063 9.925646782 13.67813683
rtibia  -3.83797431 1.228560567 25.40561295
rfoot  -3.525836229 -14.9027586 -45.11348724
rtoes  3.847099621 19.64139363 -101.3130837
lfemur  -13.08952236 -23.97211456 -19.61610413
ltibia  3.439001322 2.20853138 15.17390728
lfoot  1.196187735 -29.6647644 29.70343399
ltoes  -8.681632681 -18.08738637 -116.188805
182
root  35.07732782 36.45076301 -14.86497564 12.18590641 12.84758568 5.70361805
lowerback  -8.949839592 3.470730066 3.77317977
upperback  -4.390840054 3.978189945 -4.98401022
thorax  1.058799982 1.730280042 -6.942349911
lowerneck  -14.78960037 -6.283939838 -2.300889969
upperneck  12.77960014 -9.484060287 7.521359921
head  6.820897579 -4.165291309 1.791072011
lclavicle  0 -4.497500157e-015 -2.743230041e-014
lhumerus  -43.71350098 29.8456974 65.14959717
lradius  -0.1150976419 -6.507048965e-006 24.83099937
lwrist  4.824992743e-007 -3.790274832e-007 -37.97000122
lhand  -4.44261081e-031 -37.3606987 -10.75469971
lfingers  90 7.125020027 -90
lthumb  95.04975088 -25.57223674 101.5692926
rclavicle  0 -4.497500157e-015 -2.743230041e-014
rhumerus  65.3655014 -11.63509941 -56.3166008
rradius  -5.16745672e-007 2.214343908e-008 39.20830154
rwrist  1.380293725e-006 2.528095422e-007 -155.602005
rhand  -1.770601404e-031 4.323619843 -7.260509968
rfingers  -90 -7.125020027 -90
rthumb  -84.95130306 -8.762095042 -59.88835498
rfemur  -15.09330845 9.960229874 13.6777401
rtibia  -3.828153133 1.214645267 25.38111687
rfoot  -3.502290249 -14.93261337 -45.07921219
rtoes  3.862054211 19.63857022 -101.357577
lfemur  -13.09957027 -23.96522713 -19.60399055
ltibia  3.421400309 2.182079315 15.21750355
lfoot  1.193556786 -29.63465691 29.73048401
ltoes  -8.651883418 -18.10126469 -116.0930196
183
root  35.07623447 36.45138478 -14.86696559 12.17141819 12.77524471 5.695311069
lowerback  -8.94330883 3.445380211 3.762889385
upperback  -4.396709919 3.944560051 -4.961810112
thorax  1.041919947 1.712939978 -6.917079926
lowerneck  -14.78520012 -6.256579876 -2.321280003
upperneck  12.78820038 -9.442779541 7.521359921
head  6.819551945 -4.146697521 1.79522419
lclavicle  0 -4.497500157e-015 -2.743230041e-014
lhumerus  -43.65800095 29.62860107 65.34549713
lradius  -0.1151719019 -6.507048965e-006 24.84420013
lwrist  4.824992743e-007 -3.790274832e-007 -37.60160065
lhand  -4.444376243e-031 -37.39049911 -10.64420033
lfingers  90 7.125020027 -90
lthumb  95.03917786 -25.46282472 101.5906279
rclavicle  0 -4.497500157e-015 -2.743230041e-014
rhumerus  65.19419861 -11.62759876 -56.52159882
rradius  -5.16745672e-007 2.214343908e-008 39.48109818
rwrist  1.380293725e-006 2.528095422e-007 -155.7290039
rhand  -1.771090098e-031 4.527910233 -7.418739796
rfingers  -90 -7.125020027 -90
rthumb  -84.9842808 -8.63851772 -59.70133041
rfemur  -15.09444332 9.993621826 13.6776619
rtibia  -3.823617697 1.220579386 25.37578773
rfoot  -3.47707057 -14.92209244 -45.0200882
rtoes  3.835383386 19.64359766 -101.2782295
lfemur  -13.0725174 -23.94089127 -19.61166
ltibia  3.427404404 2.175656557 15.20062733
lfoot  1.206865668 -29.61727905 29.79676628
ltoes  -8.663773519 -18.09572501 -116.1312943
184
root  35.07524325 36.45220178 -14.86898257 12.15968704 12.70025826 5.68391943
lowerback  -8.831790924 3.415879965 3.718650341
upperback  -4.472020149 3.903529882 -4.936759949
thorax  0.8915839791 1.684749961 -6.876629829
lowerneck  -14.70919991 -6.226299763 -2.306360006
upperneck  12.83530045 -9.4019804 7.473750114
head  6.812270164 -4.130650043 1.787350059
lclavicle  0 -4.497500157e-015 -2.743230041e-014
lhumerus  -43.74850082 29.40439987 65.44609833
lradius  -0.1152435914 -6.507048965e-006 24.91329956
lwrist  4.824992743e-007 -3.790274832e-007 -37.32109833
lhand  -4.445669426e-031 -37.41230011 -10.62590027
lfingers  90 7.125020027 -90
lthumb  95.04530381 -25.44412997 101.6121489
rclavicle  0 -4.497500157e-015 -2.743230041e-014
rhumerus  64.5401001 -11.47070122 -55.68740082
rradius  -5.16745672e-007 2.214343908e-008 40.11560059
rwrist  1.380293725e-006 2.528095422e-007 -156.8179932
rhand  -1.771604892e-031 4.73348999 -7.536709785
rfingers  -90 -7.125020027 -90
rthumb  -84.99697132 -8.550232453 -59.51006918
rfemur  -15.09997559 9.986558914 13.67205334
rtibia  -3.810266256 1.193653584 25.37146759
rfoot  -3.482370853 -15.01050854 -44.98536301
rtoes  3.868106619 19.63742429 -101.375586
lfemur  -13.07232285 -23.93635559 -19.60803032
ltibia  3.423170805 2.147712708 15.20775127
lfoot  1.204475641 -29.55513382 29.85001183
ltoes  -8.660704342 -18.09715588 -116.1214134
